<?xml version="1.0" encoding="utf-8" standalone="no"?>
<!DOCTYPE svg PUBLIC "-//W3C//DTD SVG 1.1//EN"
  "http://www.w3.org/Graphics/SVG/1.1/DTD/svg11.dtd">
<svg xmlns:xlink="http://www.w3.org/1999/xlink" width="584.64pt" height="47.664pt" viewBox="0 0 584.64 47.664" xmlns="http://www.w3.org/2000/svg" version="1.1">
 <metadata>
  <rdf:RDF xmlns:dc="http://purl.org/dc/elements/1.1/" xmlns:cc="http://creativecommons.org/ns#" xmlns:rdf="http://www.w3.org/1999/02/22-rdf-syntax-ns#">
   <cc:Work>
    <dc:type rdf:resource="http://purl.org/dc/dcmitype/StillImage"/>
    <dc:date>2026-05-23T02:10:49.374699</dc:date>
    <dc:format>image/svg+xml</dc:format>
    <dc:creator>
     <cc:Agent>
      <dc:title>Matplotlib v3.10.9, https://matplotlib.org/</dc:title>
     </cc:Agent>
    </dc:creator>
   </cc:Work>
  </rdf:RDF>
 </metadata>
 <defs>
  <style type="text/css">*{stroke-linejoin: round; stroke-linecap: butt}</style>
 </defs>
 <g id="figure_1">
  <g id="patch_1">
   <path d="M 0 47.664 
L 584.64 47.664 
L 584.64 0 
L 0 0 
L 0 47.664 
z
" style="fill: none"/>
  </g>
  <g id="axes_1"/>
  <g id="text_1">
   <g id="patch_2">
    <path d="M 7.2 39.021 
L 278.51 39.021 
Q 282.41 39.021 282.41 35.121 
L 282.41 12.111 
Q 282.41 8.211 278.51 8.211 
L 7.2 8.211 
Q 3.3 8.211 3.3 12.111 
L 3.3 35.121 
Q 3.3 39.021 7.2 39.021 
z
" style="fill: #ffffff"/>
   </g>
   <!-- $\frac{c_i^{n+1} - c_i^n}{\Delta t} = \frac{D}{2} \left( \frac{c_{i-1}^{n+1} - 2c_i^{n+1} + c_{i+1}^{n+1}}{\Delta x^2} + \frac{c_{i-1}^{n} - 2c_i^{n} + c_{i+1}^{n}}{\Delta x^2} \right)$ -->
   <g transform="translate(7.2 28.491) scale(0.13 -0.13)">
    <defs>
     <path id="DejaVuSans-Oblique-63" d="M 3431 3366 
L 3316 2797 
Q 3109 2947 2876 3022 
Q 2644 3097 2394 3097 
Q 2119 3097 1870 3000 
Q 1622 2903 1453 2725 
Q 1184 2453 1037 2087 
Q 891 1722 891 1331 
Q 891 859 1127 628 
Q 1363 397 1844 397 
Q 2081 397 2348 469 
Q 2616 541 2906 684 
L 2797 116 
Q 2547 13 2283 -39 
Q 2019 -91 1741 -91 
Q 1044 -91 669 257 
Q 294 606 294 1253 
Q 294 1797 489 2255 
Q 684 2713 1069 3078 
Q 1331 3328 1684 3456 
Q 2038 3584 2456 3584 
Q 2700 3584 2940 3529 
Q 3181 3475 3431 3366 
z
" transform="scale(0.015625)"/>
     <path id="DejaVuSans-Oblique-6e" d="M 3566 2113 
L 3156 0 
L 2578 0 
L 2988 2091 
Q 3016 2238 3031 2350 
Q 3047 2463 3047 2528 
Q 3047 2791 2881 2937 
Q 2716 3084 2419 3084 
Q 1956 3084 1622 2776 
Q 1288 2469 1184 1941 
L 800 0 
L 225 0 
L 903 3500 
L 1478 3500 
L 1363 2950 
Q 1603 3253 1940 3418 
Q 2278 3584 2650 3584 
Q 3113 3584 3367 3334 
Q 3622 3084 3622 2631 
Q 3622 2519 3608 2391 
Q 3594 2263 3566 2113 
z
" transform="scale(0.015625)"/>
     <path id="DejaVuSans-2b" d="M 2944 4013 
L 2944 2272 
L 4684 2272 
L 4684 1741 
L 2944 1741 
L 2944 0 
L 2419 0 
L 2419 1741 
L 678 1741 
L 678 2272 
L 2419 2272 
L 2419 4013 
L 2944 4013 
z
" transform="scale(0.015625)"/>
     <path id="DejaVuSans-31" d="M 794 531 
L 1825 531 
L 1825 4091 
L 703 3866 
L 703 4441 
L 1819 4666 
L 2450 4666 
L 2450 531 
L 3481 531 
L 3481 0 
L 794 0 
L 794 531 
z
" transform="scale(0.015625)"/>
     <path id="DejaVuSans-Oblique-69" d="M 1172 4863 
L 1747 4863 
L 1606 4134 
L 1031 4134 
L 1172 4863 
z
M 909 3500 
L 1484 3500 
L 800 0 
L 225 0 
L 909 3500 
z
" transform="scale(0.015625)"/>
     <path id="DejaVuSans-2212" d="M 678 2272 
L 4684 2272 
L 4684 1741 
L 678 1741 
L 678 2272 
z
" transform="scale(0.015625)"/>
     <path id="DejaVuSans-394" d="M 2188 4044 
L 906 525 
L 3472 525 
L 2188 4044 
z
M 50 0 
L 1831 4666 
L 2547 4666 
L 4325 0 
L 50 0 
z
" transform="scale(0.015625)"/>
     <path id="DejaVuSans-Oblique-74" d="M 2706 3500 
L 2619 3053 
L 1472 3053 
L 1100 1153 
Q 1081 1047 1072 975 
Q 1063 903 1063 863 
Q 1063 663 1183 572 
Q 1303 481 1569 481 
L 2150 481 
L 2053 0 
L 1503 0 
Q 991 0 739 200 
Q 488 400 488 806 
Q 488 878 497 964 
Q 506 1050 525 1153 
L 897 3053 
L 409 3053 
L 500 3500 
L 978 3500 
L 1172 4494 
L 1747 4494 
L 1556 3500 
L 2706 3500 
z
" transform="scale(0.015625)"/>
     <path id="DejaVuSans-3d" d="M 678 2906 
L 4684 2906 
L 4684 2381 
L 678 2381 
L 678 2906 
z
M 678 1631 
L 4684 1631 
L 4684 1100 
L 678 1100 
L 678 1631 
z
" transform="scale(0.015625)"/>
     <path id="DejaVuSans-Oblique-44" d="M 1081 4666 
L 2438 4666 
Q 3519 4666 4070 4208 
Q 4622 3750 4622 2847 
Q 4622 2250 4412 1698 
Q 4203 1147 3834 769 
Q 3463 381 2891 190 
Q 2319 0 1538 0 
L 172 0 
L 1081 4666 
z
M 1613 4147 
L 909 519 
L 1734 519 
Q 2794 519 3375 1128 
Q 3956 1738 3956 2847 
Q 3956 3519 3581 3833 
Q 3206 4147 2406 4147 
L 1613 4147 
z
" transform="scale(0.015625)"/>
     <path id="DejaVuSans-32" d="M 1228 531 
L 3431 531 
L 3431 0 
L 469 0 
L 469 531 
Q 828 903 1448 1529 
Q 2069 2156 2228 2338 
Q 2531 2678 2651 2914 
Q 2772 3150 2772 3378 
Q 2772 3750 2511 3984 
Q 2250 4219 1831 4219 
Q 1534 4219 1204 4116 
Q 875 4013 500 3803 
L 500 4441 
Q 881 4594 1212 4672 
Q 1544 4750 1819 4750 
Q 2544 4750 2975 4387 
Q 3406 4025 3406 3419 
Q 3406 3131 3298 2873 
Q 3191 2616 2906 2266 
Q 2828 2175 2409 1742 
Q 1991 1309 1228 531 
z
" transform="scale(0.015625)"/>
     <path id="STIXSizeTwoSym-Regular-28" d="M 3219 -1555 
L 3219 -1786 
Q 2144 -774 1517 730 
Q 890 2234 890 4115 
Q 890 6003 1533 7593 
Q 2176 9184 3219 10022 
L 3219 9811 
Q 2490 9062 1994 7606 
Q 1498 6150 1498 4115 
Q 1498 563 3219 -1555 
z
" transform="scale(0.015625)"/>
     <path id="DejaVuSans-Oblique-78" d="M 3841 3500 
L 2234 1784 
L 3219 0 
L 2559 0 
L 1819 1388 
L 531 0 
L -166 0 
L 1556 1844 
L 641 3500 
L 1300 3500 
L 1972 2234 
L 3144 3500 
L 3841 3500 
z
" transform="scale(0.015625)"/>
     <path id="STIXSizeTwoSym-Regular-29" d="M 730 9792 
L 730 10022 
Q 1805 9011 2432 7507 
Q 3059 6003 3059 4115 
Q 3059 2234 2416 643 
Q 1773 -947 730 -1786 
L 730 -1574 
Q 1459 -826 1955 633 
Q 2451 2093 2451 4115 
Q 2451 7674 730 9792 
z
" transform="scale(0.015625)"/>
    </defs>
    <use xlink:href="#DejaVuSans-Oblique-63" transform="translate(0 63.434219) scale(0.7)"/>
    <use xlink:href="#DejaVuSans-Oblique-6e" transform="translate(41.741255 90.275938) scale(0.49)"/>
    <use xlink:href="#DejaVuSans-2b" transform="translate(82.343306 90.275938) scale(0.49)"/>
    <use xlink:href="#DejaVuSans-31" transform="translate(132.946333 90.275938) scale(0.49)"/>
    <use xlink:href="#DejaVuSans-Oblique-69" transform="translate(38.486328 44.293594) scale(0.49)"/>
    <use xlink:href="#DejaVuSans-2212" transform="translate(179.673384 63.434219) scale(0.7)"/>
    <use xlink:href="#DejaVuSans-Oblique-63" transform="translate(251.963423 63.434219) scale(0.7)"/>
    <use xlink:href="#DejaVuSans-Oblique-6e" transform="translate(293.704678 90.275938) scale(0.49)"/>
    <use xlink:href="#DejaVuSans-Oblique-69" transform="translate(290.449751 44.293594) scale(0.49)"/>
    <use xlink:href="#DejaVuSans-394" transform="translate(126 -37.990781) scale(0.7)"/>
    <use xlink:href="#DejaVuSans-Oblique-74" transform="translate(173.885742 -37.990781) scale(0.7)"/>
    <use xlink:href="#DejaVuSans-3d" transform="translate(358.656827 0.496719)"/>
    <use xlink:href="#DejaVuSans-Oblique-44" transform="translate(461.928311 44.293594) scale(0.7)"/>
    <use xlink:href="#DejaVuSans-32" transform="translate(466.928311 -38.909531) scale(0.7)"/>
    <use xlink:href="#STIXSizeTwoSym-Regular-28" transform="translate(528.329678 -23.620469) scale(0.954582)"/>
    <use xlink:href="#DejaVuSans-Oblique-63" transform="translate(584.579175 63.434219) scale(0.7)"/>
    <use xlink:href="#DejaVuSans-Oblique-6e" transform="translate(626.32043 90.275937) scale(0.49)"/>
    <use xlink:href="#DejaVuSans-2b" transform="translate(666.922481 90.275937) scale(0.49)"/>
    <use xlink:href="#DejaVuSans-31" transform="translate(717.525508 90.275937) scale(0.49)"/>
    <use xlink:href="#DejaVuSans-Oblique-69" transform="translate(623.065503 44.293594) scale(0.49)"/>
    <use xlink:href="#DejaVuSans-2212" transform="translate(646.225659 44.293594) scale(0.49)"/>
    <use xlink:href="#DejaVuSans-31" transform="translate(696.828687 44.293594) scale(0.49)"/>
    <use xlink:href="#DejaVuSans-2212" transform="translate(764.252559 63.434219) scale(0.7)"/>
    <use xlink:href="#DejaVuSans-32" transform="translate(836.542598 63.434219) scale(0.7)"/>
    <use xlink:href="#DejaVuSans-Oblique-63" transform="translate(881.078731 63.434219) scale(0.7)"/>
    <use xlink:href="#DejaVuSans-Oblique-6e" transform="translate(922.819986 90.275937) scale(0.49)"/>
    <use xlink:href="#DejaVuSans-2b" transform="translate(963.422037 90.275937) scale(0.49)"/>
    <use xlink:href="#DejaVuSans-31" transform="translate(1014.025064 90.275937) scale(0.49)"/>
    <use xlink:href="#DejaVuSans-Oblique-69" transform="translate(919.565059 44.293594) scale(0.49)"/>
    <use xlink:href="#DejaVuSans-2b" transform="translate(1060.752115 63.434219) scale(0.7)"/>
    <use xlink:href="#DejaVuSans-Oblique-63" transform="translate(1133.042154 63.434219) scale(0.7)"/>
    <use xlink:href="#DejaVuSans-Oblique-6e" transform="translate(1174.783409 90.275937) scale(0.49)"/>
    <use xlink:href="#DejaVuSans-2b" transform="translate(1215.38546 90.275937) scale(0.49)"/>
    <use xlink:href="#DejaVuSans-31" transform="translate(1265.988487 90.275937) scale(0.49)"/>
    <use xlink:href="#DejaVuSans-Oblique-69" transform="translate(1171.528482 44.293594) scale(0.49)"/>
    <use xlink:href="#DejaVuSans-2b" transform="translate(1194.688638 44.293594) scale(0.49)"/>
    <use xlink:href="#DejaVuSans-31" transform="translate(1245.291666 44.293594) scale(0.49)"/>
    <use xlink:href="#DejaVuSans-394" transform="translate(878.579175 -50.120469) scale(0.7)"/>
    <use xlink:href="#DejaVuSans-Oblique-78" transform="translate(926.464917 -50.120469) scale(0.7)"/>
    <use xlink:href="#DejaVuSans-32" transform="translate(971.017 -23.323594) scale(0.49)"/>
    <use xlink:href="#DejaVuSans-2b" transform="translate(1331.060265 0.496719)"/>
    <use xlink:href="#DejaVuSans-Oblique-63" transform="translate(1434.331749 63.434219) scale(0.7)"/>
    <use xlink:href="#DejaVuSans-Oblique-6e" transform="translate(1476.073004 90.275937) scale(0.49)"/>
    <use xlink:href="#DejaVuSans-Oblique-69" transform="translate(1472.818077 44.293594) scale(0.49)"/>
    <use xlink:href="#DejaVuSans-2212" transform="translate(1495.978233 44.293594) scale(0.49)"/>
    <use xlink:href="#DejaVuSans-31" transform="translate(1546.581261 44.293594) scale(0.49)"/>
    <use xlink:href="#DejaVuSans-2212" transform="translate(1593.308312 63.434219) scale(0.7)"/>
    <use xlink:href="#DejaVuSans-32" transform="translate(1665.598351 63.434219) scale(0.7)"/>
    <use xlink:href="#DejaVuSans-Oblique-63" transform="translate(1710.134483 63.434219) scale(0.7)"/>
    <use xlink:href="#DejaVuSans-Oblique-6e" transform="translate(1751.875739 90.275937) scale(0.49)"/>
    <use xlink:href="#DejaVuSans-Oblique-69" transform="translate(1748.620812 44.293594) scale(0.49)"/>
    <use xlink:href="#DejaVuSans-2b" transform="translate(1798.483161 63.434219) scale(0.7)"/>
    <use xlink:href="#DejaVuSans-Oblique-63" transform="translate(1870.7732 63.434219) scale(0.7)"/>
    <use xlink:href="#DejaVuSans-Oblique-6e" transform="translate(1912.514455 90.275937) scale(0.49)"/>
    <use xlink:href="#DejaVuSans-Oblique-69" transform="translate(1909.259528 44.293594) scale(0.49)"/>
    <use xlink:href="#DejaVuSans-2b" transform="translate(1932.419684 44.293594) scale(0.49)"/>
    <use xlink:href="#DejaVuSans-31" transform="translate(1983.022711 44.293594) scale(0.49)"/>
    <use xlink:href="#DejaVuSans-394" transform="translate(1662.331749 -50.120469) scale(0.7)"/>
    <use xlink:href="#DejaVuSans-Oblique-78" transform="translate(1710.217491 -50.120469) scale(0.7)"/>
    <use xlink:href="#DejaVuSans-32" transform="translate(1754.769575 -23.323594) scale(0.49)"/>
    <use xlink:href="#STIXSizeTwoSym-Regular-29" transform="translate(2028.612067 -23.620469) scale(0.954582)"/>
    <path d="M 0 19.293594 
L 0 25.543594 
L 326.674405 25.543594 
L 326.674405 19.293594 
L 0 19.293594 
z
"/>
    <path d="M 461.928311 19.293594 
L 461.928311 25.543594 
L 515.829678 25.543594 
L 515.829678 19.293594 
L 461.928311 19.293594 
z
"/>
    <path d="M 584.579175 19.293594 
L 584.579175 25.543594 
L 1299.077843 25.543594 
L 1299.077843 19.293594 
L 584.579175 19.293594 
z
"/>
    <path d="M 1434.331749 19.293594 
L 1434.331749 25.543594 
L 2016.112067 25.543594 
L 2016.112067 19.293594 
L 1434.331749 19.293594 
z
"/>
   </g>
  </g>
 </g>
</svg>
